# xmcd
#
# Track frame offsets: 
#        150
#        11037
#        45095
#        67741
#        89949
#        107144
#        128250
#        154107
#        167025
#        181903
#        193789
#        208123
#        224321
#        234805
#        259835
#        283810
#        315406
#
# Disc length: 4443 seconds
#
# Revision: 0
# Processed by: cddbd v1.5.2PL0 Copyright (c) Steve Scherf et al.
# Submitted via: ExactAudioCopy v1.0b3
#
DISCID=e5115911
DTITLE=Various Artist - 100 R&B Hits
DYEAR=2012
DGENRE=R&B
TTITLE0=Hank Ballard - Let's Go
TTITLE1=James Brown - It's a Man's Man's Man's World (live)
TTITLE2=Gloria Gaynor - Never Can Say Goodbye
TTITLE3=Marvin Gaye - How Sweet It Is To Be Loved By You (live)
TTITLE4=Kool and The Gang - Ladies Night (live)
TTITLE5=The Spinners - Working My Way Back To You Babe
TTITLE6=Johnson Brothers - Strawberry Letter (live)
TTITLE7=Clarence Carter - Patches
TTITLE8=The Delfonics - Didn't I blow Your Mind This Time
TTITLE9=The Drifters - This Magic Moment
TTITLE10=The Spinners - It's a Shame (live)
TTITLE11=Kool and the Gang - Joanna (live)
TTITLE12=James Brown - Papa's Got A Brand New Bage (live)
TTITLE13=Johnson Brothers - I'll be Good To You (live)
TTITLE14=Chic - Everybody Dance (live)
TTITLE15=Marvin Gaye - Let's Get It On (live)
TTITLE16=The O'Jays - For The Love of the Money
EXTD=
EXTT0=
EXTT1=
EXTT2=
EXTT3=
EXTT4=
EXTT5=
EXTT6=
EXTT7=
EXTT8=
EXTT9=
EXTT10=
EXTT11=
EXTT12=
EXTT13=
EXTT14=
EXTT15=
EXTT16=
PLAYORDER=
